<svg width="30" height="30" viewBox="0 0 30 30" fill="none" xmlns="http://www.w3.org/2000/svg">
<path d="M3.3001 4.19995C1.81885 4.19995 0.607129 5.40933 0.600098 6.89058C0.600098 6.89058 0.600098 6.89292 0.600098 6.89526C0.600098 6.89761 0.600098 6.89761 0.600098 6.89995V23.1C0.600098 24.5835 1.8165 25.7999 3.3001 25.7999H26.7001C28.1837 25.7999 29.4001 24.5835 29.4001 23.1V6.89995C29.4001 6.89761 29.4001 6.89761 29.4001 6.89526C29.4001 6.89292 29.4001 6.89058 29.4001 6.89058C29.3931 5.40933 28.1813 4.19995 26.7001 4.19995H3.3001ZM4.86104 5.39995H25.1415L15.0001 12.4687L4.86104 5.39995ZM2.86416 5.47026L15.0001 13.9312L27.1384 5.47026C27.7524 5.65542 28.1954 6.21323 28.2001 6.89292C28.1978 7.01948 28.0688 7.27261 27.8813 7.47651C27.6915 7.68276 27.5063 7.81167 27.5063 7.81167L27.504 7.81636L15.0001 16.6664L2.49619 7.81636L2.49385 7.81167C2.49385 7.81167 2.30869 7.68276 2.11885 7.47651C1.93135 7.27261 1.80244 7.01948 1.8001 6.89292C1.80479 6.21323 2.24775 5.65542 2.86416 5.47026ZM1.8001 8.79136L1.80479 8.79604L1.80947 8.79839V8.80073L3.6001 10.0664V24.5999H3.3001C2.46572 24.5999 1.8001 23.9343 1.8001 23.1V8.79136ZM28.2001 8.79136V23.1C28.2001 23.9343 27.5345 24.5999 26.7001 24.5999H26.4001V10.0664L28.1907 8.80073V8.79839L28.2001 8.79136ZM4.8001 10.9148L15.0001 18.1335L25.2001 10.9148V24.5999H4.8001V10.9148Z" fill="black"/>
</svg>
