<svg width="30" height="30" viewBox="0 0 30 30" fill="none" xmlns="http://www.w3.org/2000/svg">
<path d="M15.0002 1.19995C7.38577 1.19995 1.2002 7.38553 1.2002 15C1.2002 22.6144 7.38577 28.7999 15.0002 28.7999C22.6146 28.7999 28.8002 22.6144 28.8002 15C28.8002 7.38553 22.6146 1.19995 15.0002 1.19995ZM15.0002 2.39995C21.9661 2.39995 27.6002 8.03406 27.6002 15C27.6002 21.9658 21.9661 27.5999 15.0002 27.5999C8.0343 27.5999 2.4002 21.9658 2.4002 15C2.4002 8.03406 8.0343 2.39995 15.0002 2.39995ZM20.4529 8.42104C20.0425 8.42104 19.5814 8.5161 19.042 8.7105C18.2044 9.0123 8.35264 13.1952 7.23184 13.671C6.59104 13.9434 5.39785 14.4501 5.39785 15.6585C5.39785 16.4595 5.86721 17.0325 6.79121 17.3625C7.28801 17.5395 8.46794 17.8971 9.15254 18.0855C9.44294 18.1653 9.75154 18.2062 10.0689 18.2062C10.6899 18.2062 11.3149 18.0515 11.8045 17.7785C11.8003 17.8793 11.803 17.9812 11.815 18.0832C11.8888 18.7132 12.2773 19.3057 12.8533 19.6687C13.2301 19.9063 16.3078 21.9684 16.7674 22.296C17.413 22.7574 18.1267 23.0015 18.8299 23.0015C20.1739 23.0015 20.6248 21.6138 20.842 20.9472C21.157 19.9794 22.3365 12.1092 22.4697 10.7214C22.5603 9.77044 22.164 8.98732 21.4092 8.62612C21.1266 8.48992 20.8039 8.42104 20.4529 8.42104ZM20.4529 9.62104C20.6179 9.62104 20.7652 9.64834 20.89 9.70894C21.1738 9.84514 21.3182 10.1488 21.2744 10.6078C21.1292 12.1216 19.9526 19.8053 19.7018 20.5757C19.487 21.2345 19.2607 21.8015 18.8299 21.8015C18.3991 21.8015 17.9284 21.6505 17.4646 21.3187C17.0008 20.9875 13.921 18.9221 13.4932 18.6527C13.1182 18.4163 12.7213 17.827 13.2799 17.257C13.7401 16.7878 17.2309 13.3997 17.5291 13.1015C17.7511 12.8789 17.6473 12.6105 17.4295 12.6105C17.3545 12.6105 17.2647 12.6421 17.1717 12.7183C16.8069 13.0165 11.7211 16.4197 11.2807 16.6933C10.9891 16.8745 10.5375 17.005 10.0689 17.005C9.86914 17.005 9.66686 16.9811 9.47246 16.9277C8.79566 16.7411 7.65031 16.3936 7.19551 16.2316C6.75811 16.0756 6.59902 15.9261 6.59902 15.6585C6.59902 15.2781 7.13596 15.0156 7.70176 14.775C8.29936 14.5212 18.6398 10.13 19.4486 9.83901C19.823 9.70341 20.1655 9.62104 20.4529 9.62104Z" fill="black"/>
</svg>
