<svg width="30" height="30" viewBox="0 0 30 30" fill="none" xmlns="http://www.w3.org/2000/svg">
<path d="M15.0002 1.19995C7.38577 1.19995 1.2002 7.38553 1.2002 15C1.2002 22.6144 7.38577 28.7999 15.0002 28.7999C22.6146 28.7999 28.8002 22.6144 28.8002 15C28.8002 7.38553 22.6146 1.19995 15.0002 1.19995ZM15.0002 2.39995C21.9661 2.39995 27.6002 8.03406 27.6002 15C27.6002 21.9658 21.9661 27.5999 15.0002 27.5999C8.0343 27.5999 2.4002 21.9658 2.4002 15C2.4002 8.03406 8.0343 2.39995 15.0002 2.39995ZM9.00137 10.8L6.58027 10.8011C6.58027 10.8011 6.44173 10.7933 6.27441 10.8152C6.10709 10.8371 5.85991 10.8472 5.60645 11.1339L5.60527 11.1351L5.6041 11.1363C5.37864 11.3941 5.38725 11.6942 5.41543 11.8593C5.44351 12.0238 5.50684 12.1476 5.50684 12.1476V12.1488C5.53011 12.2059 7.28802 16.5131 9.5041 18.8273C11.0673 20.4607 12.739 20.9999 14.2279 20.9999H15.0002C15.2543 20.9999 15.4812 20.9884 15.7326 20.8582C15.984 20.7279 16.2002 20.3685 16.2002 20.0894C16.2002 19.7887 16.2076 19.4972 16.2459 19.3347C16.2817 19.183 16.2679 19.2202 16.2822 19.2199C16.2966 19.223 16.3228 19.2291 16.3725 19.2515C16.4795 19.2999 16.6449 19.4079 16.8283 19.5503C17.1946 19.8347 17.6285 20.2473 18.115 20.5664C18.8119 21.0282 19.5682 20.9999 19.5682 20.9999H22.0619L22.0889 20.9976C22.0889 20.9976 22.4715 20.9889 22.8646 20.748C23.0612 20.6275 23.2948 20.4066 23.3732 20.0753C23.4517 19.7441 23.3515 19.3966 23.1588 19.091C23.0884 18.9789 22.7466 18.4835 21.3822 17.2722C21.0297 16.9596 20.7894 16.7383 20.6943 16.6207C20.6606 16.5789 20.6578 16.5829 20.651 16.5808C20.6589 16.5603 20.7378 16.3943 20.9486 16.1203C21.1684 15.8347 21.5024 15.4367 21.9318 14.8898C22.4792 14.1925 22.8632 13.522 23.1049 12.9562C23.2257 12.6733 23.3114 12.4166 23.3627 12.1839C23.414 11.9512 23.455 11.7578 23.3791 11.482C23.3225 11.2766 23.1688 11.0927 23.0182 10.9957C22.8675 10.8986 22.7271 10.862 22.601 10.8386C22.3488 10.7918 22.1264 10.8 21.9189 10.8C21.4847 10.8 19.5541 10.8152 19.3947 10.8152C19.2077 10.8152 18.9093 10.8931 18.7713 10.9722C18.4285 11.1685 18.3213 11.4375 18.3213 11.4375L18.2885 11.4949L18.2697 11.5593C18.2697 11.5593 17.8301 12.9814 17.3779 13.7144H17.3768C16.845 14.5779 16.4484 14.9204 16.274 15.0175C16.2555 15.0278 16.2658 15.0224 16.2529 15.0292C16.2393 14.9895 16.2221 14.9348 16.2107 14.8335C16.1852 14.6054 16.2002 14.2841 16.2002 13.9734C16.2002 13.1127 16.2648 12.5761 16.1932 12.0679C16.1573 11.8138 16.0661 11.5309 15.858 11.3132C15.6499 11.0956 15.3811 10.9884 15.1127 10.9265H15.1115C14.8318 10.8621 14.5303 10.8068 13.8061 10.8C12.8833 10.7913 12.2823 10.82 11.7482 11.0578L11.7424 11.0613L11.7377 11.0636C11.5267 11.1627 11.3604 11.2763 11.2139 11.4281C11.1406 11.5039 11.0537 11.5592 10.9936 11.8007C10.9635 11.9215 10.9602 12.15 11.0967 12.3351C11.2332 12.5202 11.4245 12.576 11.5373 12.5906C11.5165 12.5879 11.626 12.612 11.7107 12.6539C11.7954 12.6957 11.869 12.756 11.8877 12.7804V12.7816C11.8799 12.7714 11.9612 12.9735 11.9826 13.1578C12.004 13.342 12.0002 13.4906 12.0002 13.4906L11.999 13.5269L12.0025 13.5632C12.0025 13.5632 12.0394 13.9709 12.0201 14.3917C12.0105 14.6022 11.9839 14.814 11.9486 14.9437C11.9468 14.9506 11.9459 14.9482 11.9439 14.9542C11.7937 14.8493 11.4473 14.4838 10.9701 13.6957C10.529 12.9666 10.1158 11.6554 10.1158 11.6554L10.1064 11.6261L10.0959 11.598C10.0959 11.598 10.0189 11.3051 9.67871 11.066C9.35988 10.8415 9.05644 10.8105 9.05644 10.8105L9.00137 10.8ZM8.86191 12C8.89623 12.0125 8.96798 12.0383 8.98144 12.0445L8.96738 12.0023L8.98613 12.0457L8.98848 12.0468V12.048H8.98965C8.95949 12.0269 8.98506 12.0478 8.98848 12.0527C9.00505 12.1092 9.37141 13.3712 9.94355 14.3167C10.4648 15.1775 10.8498 15.6597 11.2701 15.948C11.69 16.236 12.2546 16.2063 12.5416 16.057C12.9251 15.8578 13.0324 15.5304 13.1064 15.2578C13.1805 14.9851 13.207 14.7085 13.2189 14.4468C13.2418 13.9476 13.2027 13.5393 13.199 13.4988C13.1996 13.4762 13.205 13.2812 13.1744 13.0183C13.1436 12.7534 13.0884 12.4242 12.8533 12.0937C13.1167 12.0546 13.2629 11.995 13.7943 12C14.4721 12.0063 14.5752 12.0346 14.842 12.096C14.9873 12.1295 15.0034 12.1573 14.9896 12.1429C14.9759 12.1285 14.9884 12.1189 15.0049 12.2355C15.0378 12.4686 15.0002 13.0664 15.0002 13.9734C15.0002 14.229 14.9755 14.5896 15.0178 14.9671C15.06 15.3445 15.1779 15.8273 15.6342 16.1097C15.8941 16.2706 16.3907 16.3259 16.8588 16.0652C17.3268 15.8044 17.8071 15.3042 18.3986 14.3437C18.9829 13.3966 19.3323 12.1515 19.3701 12.0199C19.3701 12.0199 19.3768 12.0155 19.3807 12.0128C19.3913 12.0134 19.3778 12.0152 19.3947 12.0152C19.617 12.0152 21.5132 12 21.9189 12C22.0306 12 22.0796 12.006 22.1627 12.0093C22.1291 12.1389 22.0839 12.2897 22.001 12.4839C21.806 12.9404 21.4714 13.5325 20.9873 14.1492C20.5701 14.6804 20.2461 15.0658 19.9982 15.3878C19.7504 15.7099 19.5557 15.9639 19.4744 16.3312C19.3931 16.6985 19.5482 17.1128 19.7604 17.3753C19.9725 17.6379 20.2349 17.8591 20.5854 18.1699C21.9054 19.3418 22.122 19.6965 22.1428 19.7296V19.7308C22.1651 19.7662 22.1506 19.7306 22.1592 19.7484C22.0843 19.7717 21.9952 19.7981 21.9869 19.8H19.5588H19.5553C19.5553 19.8 19.1087 19.7853 18.7771 19.5656L18.776 19.5644H18.7748C18.4241 19.3347 18.0002 18.9407 17.5643 18.6023C17.3463 18.4331 17.1244 18.2745 16.867 18.1582C16.6096 18.0418 16.2834 17.9593 15.94 18.0621C15.4431 18.2108 15.1673 18.6838 15.0787 19.0593C15.0151 19.3289 15.0245 19.5634 15.0225 19.7988C15.0053 19.7997 15.0202 19.8 15.0002 19.8H14.2279C13.0084 19.8 11.7397 19.4277 10.3713 17.9976C8.59218 16.1397 7.00487 12.5469 6.7666 12.0011L8.86191 12ZM19.3279 12.0046C19.317 12.0071 19.3482 12.0094 19.3736 12.0117C19.3702 12.0135 19.3739 12.01 19.3689 12.0128C19.3684 12.0028 19.3426 12.0014 19.3279 12.0046Z" fill="black"/>
</svg>
